<svg width="54" height="54" viewBox="0 0 367 328" fill="none" xmlns="http://www.w3.org/2000/svg">
<path d="M73.9795 18.3301C112.955 1.10818 153.291 25.5059 168.587 39.8576C162.166 43.4455 145.813 56.513 131.764 80.0799C117.714 103.647 118.734 115.959 121 119.169H131.764H149.326H160.089L178.784 129.366V112.938C186.338 105.006 205.524 87.3312 221.839 80.0799C242.234 71.0157 269.993 76.6808 288.121 96.5087C306.249 116.337 289.254 142.396 280.756 163.924C272.259 185.451 240.534 198.481 201.445 204.146C162.355 209.811 42.8215 181.485 28.6587 175.82C14.4959 170.155 7.69765 154.293 2.59905 129.366C-2.49956 104.44 25.2595 39.8576 73.9795 18.3301Z" fill="none" stroke="white"/>
<path d="M216.99 15.156C264.54 -8.05587 313.161 22.0583 337.641 58.0453C368.341 103.178 370.069 157.63 322.012 205.499C276.829 250.504 183.251 320.675 183.251 320.675C183.251 320.675 89.6718 250.504 44.4888 205.499C-3.56803 157.63 -1.83996 103.178 28.8607 58.0453C57.566 15.846 116.31 -15.3818 166.042 34.0844" stroke="white" stroke-width="13" stroke-linecap="round" stroke-linejoin="round"/>
<path d="M16.3599 168.24C16.3599 168.24 235.829 257.75 286.297 152.444C322.063 77.8151 244.253 64.8806 193.95 93.4721C174.306 104.638 176.192 131.799 171.352 124.093C162.941 110.701 148.466 128.188 143.811 120.742C139.157 113.296 123.771 129.342 120.201 122.731C107.528 99.2664 159.398 33.753 221.129 13.1919" stroke="white" stroke-width="13"/>
<path d="M187.643 99.5202C187.643 99.5202 229.148 35.1098 288.883 52.2363" stroke="white" stroke-width="13" stroke-linecap="round" stroke-linejoin="round"/>
<path d="M220.723 70.613C220.723 70.613 330.194 44.2182 328.632 127.959C327.74 175.74 257.525 223.192 222.417 237.935" stroke="white" stroke-width="13" stroke-linecap="round" stroke-linejoin="round"/>
<path d="M202.455 149.584C211.327 150.204 219.579 153.229 225.632 158.08C231.684 162.932 235.112 169.268 235.258 175.876C235.405 182.485 232.261 188.902 226.427 193.898C220.593 198.894 212.48 202.119 203.641 202.956" stroke="white" stroke-width="13" stroke-linecap="round" stroke-linejoin="round"/>
<path d="M56.5955 215.444C56.5955 215.444 102.682 248.434 150.659 243.193" stroke="white" stroke-width="13" stroke-linecap="round" stroke-linejoin="round"/>
<path d="M120.261 272.457C120.261 272.457 175.563 287.542 218.454 266.253" stroke="white" stroke-width="13" stroke-linecap="round" stroke-linejoin="round"/>
</svg>
