<svg width="22" height="22" viewBox="0 0 20 22" fill="none" xmlns="http://www.w3.org/2000/svg">
<path d="M18.5 13.6C18 13.3 17.8 12.8 17.9 12.3C18 11.9 18 11.4 18 11C18 10.6 18 10.1 17.9 9.7C17.8 9.2 18.1 8.7 18.5 8.4C19.1 8 19.3 7.2 19 6.6L18.3 5.4C17.9 4.8 17.1 4.6 16.5 4.9C16 5.2 15.5 5.1 15.1 4.8C14.4 4.2 13.7 3.8 12.8 3.5C12.3 3.3 12 2.8 12 2.3C12 1.6 11.4 1 10.7 1H9.30001C8.60001 1 8.00001 1.6 8.00001 2.3C8.00001 2.8 7.70001 3.3 7.20001 3.5C6.40001 3.8 5.60001 4.3 4.90001 4.8C4.50001 5.1 3.90001 5.2 3.40001 4.9C2.80001 4.6 2.00001 4.8 1.70001 5.4L1.00001 6.6C0.60001 7.2 0.90001 8 1.50001 8.4C2.00001 8.7 2.20001 9.2 2.10001 9.7C2.10001 10.2 2.00001 10.6 2.00001 11C2.00001 11.4 2.00001 11.9 2.10001 12.3C2.20001 12.8 1.90001 13.3 1.50001 13.6C0.80001 14 0.60001 14.8 1.00001 15.4L1.70001 16.6C2.10001 17.2 2.90001 17.4 3.50001 17.1C4.00001 16.8 4.50001 16.9 5.00001 17.2C5.70001 17.7 6.40001 18.2 7.20001 18.5C7.70001 18.7 8.00001 19.2 8.00001 19.7V19.8C8.00001 20.5 8.60001 21.1 9.30001 21.1H10.7C11.4 21.1 12 20.5 12 19.8C12 19.3 12.3 18.8 12.8 18.6C13.6 18.3 14.4 17.9 15 17.3C15.4 17 16 16.9 16.4 17.2C17 17.6 17.8 17.3 18.2 16.7L18.9 15.5C19.4 14.8 19.2 14 18.5 13.6ZM10 15C7.80001 15 6.00001 13.2 6.00001 11C6.00001 8.8 7.80001 7 10 7C12.2 7 14 8.8 14 11C14 13.2 12.2 15 10 15Z" fill="none" stroke="#A66FE5" stroke-miterlimit="10" stroke-linecap="round" stroke-linejoin="round"/>
</svg>
