<svg width="22" height="22" viewBox="0 0 22 23" fill="none" xmlns="http://www.w3.org/2000/svg">
<path d="M19.5 13.6C19 13.3 18.8 12.8 18.9 12.3C19 11.9 19 11.4 19 11C19 10.6 19 10.1 18.9 9.7C18.8 9.2 19.1 8.7 19.5 8.4C20.1 8 20.3 7.2 20 6.6L19.3 5.4C18.9 4.8 18.1 4.6 17.5 4.9C17 5.2 16.5 5.1 16.1 4.8C15.4 4.2 14.7 3.8 13.8 3.5C13.3 3.3 13 2.8 13 2.3C13 1.6 12.4 1 11.7 1H10.3C9.60001 1 9.00001 1.6 9.00001 2.3C9.00001 2.8 8.70001 3.3 8.20001 3.5C7.40001 3.8 6.60001 4.3 5.90001 4.8C5.50001 5.1 4.90001 5.2 4.40001 4.9C3.80001 4.6 3.00001 4.8 2.70001 5.4L2.00001 6.6C1.60001 7.2 1.90001 8 2.50001 8.4C3.00001 8.7 3.20001 9.2 3.10001 9.7C3.10001 10.2 3.00001 10.6 3.00001 11C3.00001 11.4 3.00001 11.9 3.10001 12.3C3.20001 12.8 2.90001 13.3 2.50001 13.6C1.80001 14 1.60001 14.8 2.00001 15.4L2.70001 16.6C3.10001 17.2 3.90001 17.4 4.50001 17.1C5.00001 16.8 5.50001 16.9 6.00001 17.2C6.70001 17.7 7.40001 18.2 8.20001 18.5C8.70001 18.7 9.00001 19.2 9.00001 19.7V19.8C9.00001 20.5 9.60001 21.1 10.3 21.1H11.7C12.4 21.1 13 20.5 13 19.8C13 19.3 13.3 18.8 13.8 18.6C14.6 18.3 15.4 17.9 16 17.3C16.4 17 17 16.9 17.4 17.2C18 17.6 18.8 17.3 19.2 16.7L19.9 15.5C20.4 14.8 20.2 14 19.5 13.6ZM11 15C8.80001 15 7.00001 13.2 7.00001 11C7.00001 8.8 8.80001 7 11 7C13.2 7 15 8.8 15 11C15 13.2 13.2 15 11 15Z" stroke="#A66FE5" stroke-width="2" stroke-miterlimit="10" stroke-linecap="round" stroke-linejoin="round"/>
</svg>
