<svg width="24" height="24" viewBox="0 0 24 24" fill="none" xmlns="http://www.w3.org/2000/svg">
<path d="M21.2 10.9C19.2 7.99999 15.9 6 12.1 6C8.3 6 4.9 7.89999 3 10.9C2.5 11.6 2.5 12.5 3 13.1C5 16 8.3 18 12.1 18C15.9 18 19.3 16.1 21.2 13.1C21.6 12.4 21.6 11.6 21.2 10.9ZM12 15C10.3 15 9 13.7 9 12C9 10.3 10.3 9 12 9C13.7 9 15 10.3 15 12C15 13.7 13.7 15 12 15Z" stroke="#A66FE5" stroke-miterlimit="10" stroke-linecap="round" stroke-linejoin="round"/>
<path d="M2 7C2 4.8 3.8 3 6 3" stroke="#A66FE5" stroke-miterlimit="10" stroke-linecap="round" stroke-linejoin="round"/>
<path d="M6 21C3.8 21 2 19.2 2 17" stroke="#A66FE5" stroke-miterlimit="10" stroke-linecap="round" stroke-linejoin="round"/>
<path d="M22 17C22 19.2 20.2 21 18 21" stroke="#A66FE5" stroke-miterlimit="10" stroke-linecap="round" stroke-linejoin="round"/>
<path d="M18 3C20.2 3 22 4.8 22 7" stroke="#A66FE5" stroke-miterlimit="10" stroke-linecap="round" stroke-linejoin="round"/>
</svg>
